<?xml version="1.0" encoding="UTF-8"?>
<svg xmlns="http://www.w3.org/2000/svg" xmlns:xlink="http://www.w3.org/1999/xlink" width="20px" height="20px" viewBox="0 0 20 20" version="1.1">
<g id="surface1">
<path style=" stroke:none;fill-rule:nonzero;fill:rgb(0%,0%,0%);fill-opacity:1;" d="M 10 0 C 4.476562 0 0 4.476562 0 10 C 0 15.523438 4.476562 20 10 20 C 15.523438 20 20 15.523438 20 10 C 20 4.476562 15.523438 0 10 0 Z M 10 18.4375 C 5.339844 18.4375 1.5625 14.660156 1.5625 10 C 1.5625 5.339844 5.339844 1.5625 10 1.5625 C 14.660156 1.5625 18.4375 5.339844 18.4375 10 C 18.4375 14.660156 14.660156 18.4375 10 18.4375 Z M 10 18.4375 "/>
<path style=" stroke:none;fill-rule:nonzero;fill:rgb(0%,0%,0%);fill-opacity:1;" d="M 5.949219 9.488281 C 6.644531 10.0625 7.601562 10.121094 8.351562 9.714844 L 8.515625 9.863281 L 9.222656 9.28125 C 9.167969 9.136719 9.148438 8.984375 9.160156 8.824219 C 9.183594 8.601562 9.273438 8.398438 9.417969 8.230469 C 9.539062 7.519531 9.292969 6.769531 8.691406 6.273438 C 8.058594 5.753906 7.238281 5.445312 6.527344 5.738281 C 6.441406 5.773438 6.804688 6.539062 6.804688 6.539062 L 7.726562 6.847656 L 8.027344 7.890625 L 7.738281 8.226562 L 7.453125 8.5625 L 6.355469 8.453125 L 5.886719 7.617188 C 5.886719 7.617188 5.054688 7.394531 5.035156 7.484375 C 4.867188 8.226562 5.316406 8.964844 5.949219 9.488281 Z M 5.949219 9.488281 "/>
<path style=" stroke:none;fill-rule:nonzero;fill:rgb(0%,0%,0%);fill-opacity:1;" d="M 14.683594 12.578125 L 12.023438 10.578125 C 11.964844 10.65625 11.90625 10.730469 11.828125 10.792969 C 11.640625 10.949219 11.390625 11.039062 11.140625 11.039062 C 10.949219 11.039062 10.761719 10.988281 10.601562 10.898438 L 10.109375 11.304688 L 13.304688 14.191406 L 14.082031 14.375 L 14.542969 13.835938 L 15 13.296875 Z M 14.683594 12.578125 "/>
<path style=" stroke:none;fill-rule:nonzero;fill:rgb(0%,0%,0%);fill-opacity:1;" d="M 10.859375 10.207031 C 10.988281 10.359375 11.21875 10.378906 11.371094 10.25 C 11.523438 10.125 11.542969 9.90625 11.421875 9.753906 L 14.167969 7.5 C 14.46875 7.253906 14.507812 6.8125 14.257812 6.519531 C 14.003906 6.222656 13.554688 6.1875 13.257812 6.433594 L 10.507812 8.6875 C 10.378906 8.539062 10.152344 8.519531 10 8.644531 C 9.847656 8.773438 9.828125 9 9.957031 9.148438 L 10.179688 9.410156 L 6.355469 12.566406 L 5.84375 12.71875 L 5.257812 13.46875 L 5.71875 14.003906 L 6.5625 13.589844 L 6.816406 13.105469 L 10.640625 9.949219 Z M 10.859375 10.207031 "/>
</g>
</svg>
