<?xml version="1.0" encoding="UTF-8"?>
<svg xmlns="http://www.w3.org/2000/svg" xmlns:xlink="http://www.w3.org/1999/xlink" width="20px" height="20px" viewBox="0 0 20 20" version="1.1">
<g id="surface1">
<path style="fill:none;stroke-width:1;stroke-linecap:round;stroke-linejoin:round;stroke:rgb(0%,0%,0%);stroke-opacity:1;stroke-miterlimit:4;" d="M 13.246875 4.51875 L 31.378125 7.0875 L 31.3875 43.5 L 13.246875 40.93125 Z M 13.246875 4.51875 " transform="matrix(0.416667,0,0,0.416667,0,0)"/>
<path style="fill:none;stroke-width:1;stroke-linecap:round;stroke-linejoin:round;stroke:rgb(0%,0%,0%);stroke-opacity:1;stroke-miterlimit:4;" d="M 13.246875 4.5 L 34.753125 4.575 L 34.678125 40.35 L 31.4625 40.425 " transform="matrix(0.416667,0,0,0.416667,0,0)"/>
<path style="fill:none;stroke-width:1;stroke-linecap:round;stroke-linejoin:round;stroke:rgb(0%,0%,0%);stroke-opacity:1;stroke-miterlimit:4;" d="M 29.596875 26.015625 C 29.653125 27.5625 28.95 28.565625 28.21875 28.284375 C 27.628125 28.059375 27.20625 27.065625 27.178125 26.00625 C 27.15 24.965625 27.459375 23.784375 28.078125 23.709375 C 28.921875 23.615625 29.540625 24.50625 29.596875 26.015625 Z M 29.596875 26.015625 " transform="matrix(0.416667,0,0,0.416667,0,0)"/>
</g>
</svg>
