<?xml version="1.0" encoding="UTF-8"?>
<svg xmlns="http://www.w3.org/2000/svg" xmlns:xlink="http://www.w3.org/1999/xlink" width="20px" height="20px" viewBox="0 0 20 20" version="1.1">
<g id="surface1">
<path style=" stroke:none;fill-rule:nonzero;fill:rgb(0%,0%,0%);fill-opacity:1;" d="M 16.183594 6.414062 C 16.183594 5.613281 15.535156 4.964844 14.734375 4.964844 C 13.933594 4.964844 13.285156 5.613281 13.285156 6.414062 C 13.285156 7.214844 13.933594 7.863281 14.734375 7.863281 C 15.535156 7.863281 16.183594 7.214844 16.183594 6.414062 Z M 16.183594 6.414062 "/>
<path style=" stroke:none;fill-rule:nonzero;fill:rgb(0%,0%,0%);fill-opacity:1;" d="M 6.828125 19.195312 L 7.390625 15 L 7.207031 13.636719 L 7.261719 13.589844 L 6.21875 12.636719 L 6.210938 12.628906 C 5.527344 11.945312 5.433594 10.890625 5.929688 10.105469 L 5.902344 10.0625 L 6.210938 9.75 L 7.027344 8.933594 C 7.082031 8.878906 7.140625 8.835938 7.203125 8.789062 C 6.75 8.539062 6.238281 8.417969 5.714844 8.417969 L 4.878906 8.417969 C 4.054688 8.417969 3.261719 8.699219 2.679688 9.28125 L 1.863281 10.058594 C 1.277344 10.683594 1.277344 11.632812 1.863281 12.21875 L 3.382812 13.621094 L 2.632812 19.253906 C 2.617188 19.367188 2.707031 19.472656 2.820312 19.472656 L 3.964844 19.472656 C 4.0625 19.472656 4.140625 19.40625 4.152344 19.3125 L 4.773438 14.804688 C 4.785156 14.730469 4.808594 14.660156 4.847656 14.597656 C 5.042969 14.261719 5.546875 14.261719 5.742188 14.597656 C 5.78125 14.660156 5.808594 14.730469 5.816406 14.808594 L 6.4375 19.3125 C 6.453125 19.40625 6.53125 19.472656 6.625 19.472656 L 6.847656 19.472656 C 6.824219 19.394531 6.816406 19.289062 6.828125 19.195312 Z M 3.640625 11.902344 L 3.160156 11.421875 C 3.03125 11.292969 3.03125 11.085938 3.160156 10.957031 L 3.765625 10.347656 C 3.796875 10.316406 3.851562 10.34375 3.847656 10.386719 Z M 3.640625 11.902344 "/>
<path style=" stroke:none;fill-rule:nonzero;fill:rgb(0%,0%,0%);fill-opacity:1;" d="M 6.746094 6.414062 C 6.746094 5.613281 6.097656 4.964844 5.296875 4.964844 C 4.496094 4.964844 3.847656 5.613281 3.847656 6.414062 C 3.847656 7.214844 4.496094 7.863281 5.296875 7.863281 C 6.097656 7.863281 6.746094 7.214844 6.746094 6.414062 Z M 6.746094 6.414062 "/>
<path style=" stroke:none;fill-rule:nonzero;fill:rgb(0%,0%,0%);fill-opacity:1;" d="M 8.257812 2.539062 L 8.46875 2.585938 C 8.507812 2.59375 8.535156 2.621094 8.542969 2.660156 C 8.578125 2.808594 8.628906 2.945312 8.703125 3.074219 C 8.722656 3.105469 8.71875 3.144531 8.699219 3.175781 L 8.570312 3.378906 C 8.542969 3.417969 8.550781 3.472656 8.582031 3.503906 L 8.789062 3.710938 C 8.820312 3.742188 8.871094 3.75 8.910156 3.722656 L 9.097656 3.605469 C 9.128906 3.582031 9.171875 3.582031 9.203125 3.605469 C 9.328125 3.683594 9.460938 3.746094 9.605469 3.785156 C 9.640625 3.796875 9.667969 3.824219 9.675781 3.859375 L 9.730469 4.109375 C 9.738281 4.15625 9.777344 4.199219 9.824219 4.199219 L 10.117188 4.199219 C 10.164062 4.199219 10.203125 4.15625 10.214844 4.109375 L 10.261719 3.890625 C 10.269531 3.851562 10.296875 3.820312 10.335938 3.8125 C 10.484375 3.78125 10.625 3.726562 10.75 3.652344 C 10.785156 3.636719 10.824219 3.636719 10.855469 3.65625 L 11.054688 3.785156 C 11.09375 3.808594 11.148438 3.804688 11.179688 3.773438 L 11.386719 3.566406 C 11.417969 3.53125 11.425781 3.480469 11.398438 3.441406 L 11.285156 3.261719 C 11.261719 3.230469 11.261719 3.1875 11.285156 3.152344 C 11.367188 3.03125 11.429688 2.890625 11.46875 2.746094 C 11.480469 2.710938 11.507812 2.683594 11.542969 2.675781 L 11.777344 2.625 C 11.820312 2.613281 11.855469 2.574219 11.855469 2.527344 L 11.855469 2.238281 C 11.855469 2.191406 11.820312 2.148438 11.777344 2.140625 L 11.570312 2.09375 C 11.53125 2.085938 11.503906 2.058594 11.496094 2.019531 C 11.464844 1.867188 11.40625 1.722656 11.335938 1.59375 C 11.316406 1.5625 11.316406 1.523438 11.335938 1.492188 L 11.460938 1.296875 C 11.484375 1.257812 11.480469 1.207031 11.445312 1.171875 L 11.242188 0.96875 C 11.207031 0.933594 11.15625 0.929688 11.117188 0.953125 L 10.945312 1.066406 C 10.910156 1.085938 10.871094 1.085938 10.835938 1.066406 C 10.710938 0.980469 10.570312 0.917969 10.421875 0.878906 C 10.382812 0.867188 10.359375 0.839844 10.347656 0.804688 L 10.300781 0.574219 C 10.289062 0.527344 10.25 0.488281 10.203125 0.488281 L 9.914062 0.488281 C 9.867188 0.488281 9.824219 0.527344 9.816406 0.574219 L 9.769531 0.777344 C 9.761719 0.816406 9.734375 0.847656 9.695312 0.855469 C 9.542969 0.890625 9.402344 0.945312 9.269531 1.019531 C 9.238281 1.039062 9.199219 1.039062 9.167969 1.019531 L 8.972656 0.894531 C 8.933594 0.867188 8.882812 0.875 8.847656 0.90625 L 8.644531 1.113281 C 8.609375 1.144531 8.605469 1.195312 8.628906 1.234375 L 8.746094 1.414062 C 8.765625 1.449219 8.765625 1.488281 8.746094 1.523438 C 8.664062 1.648438 8.601562 1.785156 8.5625 1.929688 C 8.550781 1.96875 8.523438 1.996094 8.488281 2.003906 L 8.257812 2.054688 C 8.214844 2.0625 8.183594 2.101562 8.183594 2.148438 L 8.183594 2.441406 C 8.183594 2.488281 8.214844 2.527344 8.257812 2.539062 Z M 10.015625 1.476562 C 10.492188 1.476562 10.878906 1.863281 10.878906 2.339844 C 10.878906 2.816406 10.492188 3.203125 10.015625 3.203125 C 9.539062 3.203125 9.152344 2.816406 9.152344 2.339844 C 9.152344 1.863281 9.539062 1.476562 10.015625 1.476562 Z M 10.015625 1.476562 "/>
<path style=" stroke:none;fill-rule:nonzero;fill:rgb(0%,0%,0%);fill-opacity:1;" d="M 5.28125 4.164062 C 5.292969 4.164062 5.300781 4.164062 5.3125 4.164062 C 5.433594 4.164062 5.535156 4.078125 5.550781 3.957031 C 5.660156 3.171875 6.339844 2.582031 7.132812 2.582031 C 7.265625 2.582031 7.375 2.472656 7.375 2.339844 C 7.375 2.207031 7.265625 2.097656 7.132812 2.097656 C 6.097656 2.097656 5.214844 2.867188 5.074219 3.890625 C 5.054688 4.023438 5.148438 4.144531 5.28125 4.164062 Z M 5.28125 4.164062 "/>
<path style=" stroke:none;fill-rule:nonzero;fill:rgb(0%,0%,0%);fill-opacity:1;" d="M 12.792969 2.582031 C 13.589844 2.582031 14.269531 3.171875 14.375 3.960938 C 14.390625 4.082031 14.496094 4.167969 14.613281 4.167969 C 14.625 4.167969 14.636719 4.167969 14.648438 4.167969 C 14.777344 4.148438 14.871094 4.027344 14.855469 3.894531 C 14.714844 2.871094 13.828125 2.097656 12.792969 2.097656 C 12.660156 2.097656 12.550781 2.207031 12.550781 2.339844 C 12.550781 2.472656 12.660156 2.582031 12.792969 2.582031 Z M 12.792969 2.582031 "/>
<path style=" stroke:none;fill-rule:nonzero;fill:rgb(0%,0%,0%);fill-opacity:1;" d="M 12.375 16.996094 L 11.925781 13.640625 L 12.375 13.230469 L 13.445312 12.253906 C 14.03125 11.667969 14.03125 10.714844 13.445312 10.128906 L 13.445312 10.125 L 12.628906 9.308594 C 12.550781 9.226562 12.460938 9.160156 12.375 9.089844 C 11.824219 8.648438 11.140625 8.417969 10.433594 8.417969 L 9.597656 8.417969 C 8.886719 8.417969 8.203125 8.648438 7.65625 9.089844 C 7.566406 9.160156 7.480469 9.230469 7.398438 9.3125 L 6.582031 10.128906 C 5.996094 10.714844 5.996094 11.667969 6.582031 12.257812 L 7.65625 13.230469 L 8.101562 13.640625 L 7.65625 16.996094 L 7.351562 19.269531 C 7.339844 19.375 7.414062 19.464844 7.519531 19.476562 C 7.523438 19.476562 7.53125 19.472656 7.539062 19.472656 L 8.683594 19.472656 C 8.78125 19.472656 8.859375 19.40625 8.871094 19.316406 L 9.492188 14.808594 C 9.503906 14.730469 9.527344 14.660156 9.566406 14.597656 C 9.761719 14.261719 10.265625 14.265625 10.460938 14.597656 C 10.5 14.660156 10.527344 14.734375 10.535156 14.808594 L 11.15625 19.3125 C 11.171875 19.40625 11.25 19.472656 11.34375 19.472656 L 12.492188 19.472656 C 12.496094 19.472656 12.503906 19.476562 12.511719 19.476562 C 12.613281 19.464844 12.691406 19.371094 12.675781 19.265625 Z M 8.359375 11.902344 L 7.878906 11.421875 C 7.75 11.292969 7.75 11.085938 7.878906 10.957031 L 8.484375 10.351562 C 8.515625 10.316406 8.570312 10.34375 8.566406 10.386719 Z M 11.464844 10.386719 C 11.457031 10.34375 11.511719 10.316406 11.542969 10.351562 L 12.152344 10.957031 C 12.277344 11.085938 12.277344 11.292969 12.152344 11.421875 L 11.671875 11.902344 Z M 11.464844 10.386719 "/>
<path style=" stroke:none;fill-rule:nonzero;fill:rgb(0%,0%,0%);fill-opacity:1;" d="M 18.164062 10.125 L 17.351562 9.316406 C 16.765625 8.734375 15.976562 8.417969 15.152344 8.417969 L 14.316406 8.417969 C 13.789062 8.417969 13.277344 8.539062 12.824219 8.789062 C 12.886719 8.839844 12.945312 8.886719 13.003906 8.945312 L 14.128906 10.066406 L 14.097656 10.105469 C 14.59375 10.890625 14.503906 11.945312 13.820312 12.628906 L 13.800781 12.644531 L 12.765625 13.589844 L 12.820312 13.640625 L 12.640625 15 L 13.199219 19.195312 C 13.210938 19.289062 13.207031 19.394531 13.179688 19.472656 L 13.402344 19.472656 C 13.5 19.472656 13.578125 19.40625 13.589844 19.3125 L 14.210938 14.804688 C 14.222656 14.730469 14.246094 14.660156 14.285156 14.597656 C 14.480469 14.261719 14.984375 14.261719 15.179688 14.597656 C 15.21875 14.660156 15.242188 14.730469 15.253906 14.808594 L 15.875 19.3125 C 15.890625 19.40625 15.96875 19.472656 16.0625 19.472656 L 17.210938 19.472656 C 17.324219 19.472656 17.410156 19.375 17.394531 19.261719 L 16.644531 13.636719 L 18.164062 12.253906 C 18.75 11.664062 18.75 10.714844 18.164062 10.125 Z M 16.871094 11.421875 L 16.390625 11.902344 L 16.183594 10.386719 C 16.175781 10.34375 16.230469 10.316406 16.261719 10.347656 L 16.871094 10.957031 C 17 11.085938 17 11.292969 16.871094 11.421875 Z M 16.871094 11.421875 "/>
<path style=" stroke:none;fill-rule:nonzero;fill:rgb(0%,0%,0%);fill-opacity:1;" d="M 10.015625 4.941406 C 9.214844 4.941406 8.566406 5.585938 8.566406 6.386719 C 8.566406 7.1875 9.214844 7.832031 10.015625 7.832031 C 10.816406 7.832031 11.464844 7.1875 11.464844 6.386719 C 11.464844 5.585938 10.816406 4.941406 10.015625 4.941406 Z M 10.015625 4.941406 "/>
</g>
</svg>
